<svg id="Capa_1" enable-background="new 0 0 501 501" height="512" viewBox="0 0 501 501" width="512" xmlns="http://www.w3.org/2000/svg"><g><path d="m5.5 245c0-135.31 109.69-245 245-245s245 109.69 245 245c0 85.807-44.111 161.31-110.894 205.071-38.528-25.247-84.602-39.929-134.106-39.929s-95.577 14.682-134.106 39.929c-66.783-43.761-110.894-119.264-110.894-205.071z" fill="#05a2f9"/><path d="m443.5 182c0 106.591-86.409 193-193 193s-193-86.409-193-193c0-60.228 27.588-114.012 70.816-149.405 35.965-20.733 77.689-32.595 122.184-32.595s86.219 11.862 122.184 32.595c43.228 35.393 70.816 89.177 70.816 149.405z" fill="#63bcfa"/><path d="m456.5 375.364c0 .777-.005 1.555-.013 2.335-43.619 67.57-119.579 112.301-205.987 112.301s-162.368-44.731-205.987-112.301c-.009-.78-.013-1.558-.013-2.335 0-62.388 28.143-111.795 72.514-143.526-21.219-26.806-33.806-57.83-33.806-85.994 0-24.8 9.76-46.228 26.579-63.486-15.074-18.65-12.792-47.338 6.035-66.255 20.054-20.15 51.284-21.583 69.755-3.201 7.288 7.253 11.499 16.506 12.698 26.291 16.433-3.207 33.988-4.876 52.225-4.876 14.707 0 28.971 1.085 42.56 3.188 1.457-9.157 5.593-17.768 12.46-24.603 18.471-18.382 49.702-16.949 69.755 3.201 16.994 17.076 20.507 42.113 9.943 60.542 20.473 18.152 32.573 41.586 32.573 69.2 0 28.164-12.587 59.188-33.806 85.994 44.372 31.729 72.515 81.137 72.515 143.525z" fill="#c98001"/><path d="m86.333 373.147v.019.019c0-.008 0-.029 0-.038zm297.653-141.309c-30.542 38.584-78.969 68.43-133.486 68.43-37.729 0-72.541-14.294-100.526-35.887-8.602-6.637-20.985-5.178-27.756 3.319-22.527 28.27-35.885 63.8-35.885 105.467.016 14.554 8.401 31.241 14.357 43.431 6.354 13.004 13.411 25.34 21.1 36.91 37.403 23.137 81.497 36.492 128.71 36.492 86.408 0 162.368-44.731 205.987-112.301.009-.78.013-1.558.013-2.335 0-62.388-28.143-111.796-72.514-143.526zm-21.982-171.595c3.835-8.103 2.035-18.541-5.174-25.784-8.994-9.037-23-9.68-31.284-1.436-2.882 2.868-4.692 6.435-5.448 10.247-21.192-5.859-44.763-8.954-69.599-8.954-28.626 0-55.573 4.111-79.133 11.829-.292-4.875-2.219-9.542-5.816-13.122-8.284-8.244-22.29-7.602-31.284 1.436-8.743 8.785-9.53 22.269-1.957 30.587-7.059 12.738-10.925 27.012-10.925 42.621 0 68.702 74.899 154.423 167.292 154.423 36.78 0 70.788-13.584 98.402-34.271 19.344-25.858 30.713-55.208 30.713-81.975.001-36.85-21.548-66.256-55.787-85.601z" fill="#f19b0b"/><path d="m347.637 202.024c0 39.892-43.49 89.665-97.137 89.665s-97.137-49.774-97.137-89.665 43.49-64.758 97.137-64.758 97.137 24.866 97.137 64.758z" fill="#f5c02c"/><path d="m175.276 180.11c0-9.418 2.565-18 7.231-25.613 18.078-10.789 42.78-16.9 70.108-17.219 52.671.645 95.022 25.379 95.022 64.745 0 19.305-10.185 40.924-26.777 58.096-13.033 6.049-27.533 9.656-42.812 9.656-56.759.001-102.772-49.773-102.772-89.665z" fill="#f5dc90"/><path d="m221.201 110.52c1.943 3.163.953 7.303-2.21 9.245-1.097.674-2.311.995-3.511.995-2.259 0-4.465-1.139-5.734-3.205-2.507-4.083-5.619-6.425-8.537-6.425-2.917 0-6.029 2.342-8.536 6.425-1.943 3.163-6.082 4.153-9.245 2.21-3.163-1.942-4.153-6.082-2.21-9.245 5.008-8.155 12.295-12.833 19.992-12.833 7.695 0 14.982 4.677 19.991 12.833zm98.583 0c-5.009-8.156-12.296-12.833-19.993-12.833s-14.983 4.678-19.992 12.833c-1.943 3.163-.953 7.303 2.21 9.245 3.164 1.943 7.303.953 9.245-2.21 2.507-4.083 5.619-6.425 8.536-6.425 2.918 0 6.03 2.342 8.537 6.425 1.269 2.066 3.475 3.205 5.734 3.205 1.199 0 2.414-.321 3.511-.995 3.165-1.943 4.154-6.082 2.212-9.245z" fill="#c64b1a"/><path d="m296.478 252.554c-12.676 12.675-29.327 19.014-45.978 19.014s-33.302-6.338-45.978-19.014c-2.625-2.625-2.625-6.881 0-9.506 2.625-2.624 6.881-2.624 9.506 0 8.346 8.346 18.864 13.229 29.751 14.647v-50.223c0-3.713 3.009-6.722 6.722-6.722s6.722 3.009 6.722 6.722v50.223c10.887-1.419 21.405-6.301 29.751-14.647 2.625-2.624 6.881-2.624 9.506 0 2.623 2.625 2.623 6.881-.002 9.506z" fill="#c98001"/><path d="m281.055 160.989c8.778 9.132 8.778 23.566 0 32.698l-6.962 7.244-7.244 6.962c-9.132 8.778-23.566 8.778-32.698 0l-7.244-6.962-6.962-7.244c-8.778-9.132-8.778-23.566 0-32.698 4.448-4.628 10.59-7.244 17.01-7.244h27.091c6.419 0 12.561 2.616 17.009 7.244z" fill="#f02399"/><path d="m250.316 191.729-7.244-6.962-6.962-7.244c-6.023-6.266-7.912-15.027-5.671-22.859 2.099-.603 4.291-.918 6.516-.918h27.091c6.419 0 12.561 2.616 17.01 7.244 8.455 8.796 8.764 22.511.93 31.669-9.158 7.834-22.873 7.525-31.67-.93z" fill="#fd5ca6"/><path d="m404.5 404c0 13.807-11.193 25-25 25 0 13.807-11.193 25-25 25 0 5.746-1.939 11.04-5.198 15.262-20.783 9.169-43.081 15.535-66.415 18.616-1.374-3.096-2.137-6.522-2.137-10.128 0-13.398 10.539-24.334 23.78-24.97.636-13.241 11.572-23.78 24.97-23.78 0-13.807 11.193-25 25-25 0-8.178 3.927-15.439 9.998-20-6.071-4.561-9.998-11.822-9.998-20 0-3.126.574-6.119 1.622-8.877-5.801-3.681-9.982-9.686-11.233-16.705-1.736.381-3.539.583-5.389.583-8.178 0-15.439-3.927-20-9.998-4.561 6.071-11.822 9.998-20 9.998-1.51 0-2.988-.134-4.425-.391-2.163 11.605-12.343 20.39-24.575 20.39-8.178 0-15.439-3.927-20-9.998-4.561 6.071-11.822 9.998-20 9.998-12.381 0-22.659-9-24.651-20.814-2.028.531-4.155.814-6.349.814-8.178 0-15.439-3.927-20-9.998-4.561 6.071-11.822 9.998-20 9.998-1.85 0-3.653-.201-5.389-.583-1.251 7.019-5.432 13.024-11.233 16.705 1.048 2.759 1.622 5.751 1.622 8.877 0 8.178-3.927 15.439-9.998 20 6.071 4.561 9.998 11.822 9.998 20 13.807 0 25 11.193 25 25 13.398 0 24.334 10.539 24.97 23.78 13.24.636 23.78 11.572 23.78 24.97 0 3.506-.722 6.843-2.025 9.872-23.757-3.326-46.422-10.059-67.485-19.689-2.677-3.981-4.24-8.774-4.24-13.933-13.807 0-25-11.193-25-25-13.807 0-25-11.193-25-25 0-8.178 3.927-15.439 9.998-20-6.071-4.561-9.998-11.822-9.998-20 0-8.886 4.636-16.689 11.622-21.123-1.048-2.759-1.622-5.751-1.622-8.877 0-13.807 11.193-25 25-25 1.85 0 3.653.201 5.389.583 2.086-11.7 12.311-20.582 24.611-20.582 8.178 0 15.439 3.927 20 9.998 4.561-6.071 11.822-9.998 20-9.998 12.381 0 22.659 9 24.651 20.814 2.028-.531 4.155-.814 6.349-.814 8.178 0 15.439 3.927 20 9.998 4.561-6.071 11.822-9.998 20-9.998 1.51 0 2.988.134 4.425.391 2.163-11.606 12.343-20.391 24.575-20.391 8.178 0 15.439 3.927 20 9.998 4.561-6.071 11.822-9.998 20-9.998 12.3 0 22.525 8.882 24.611 20.583 1.736-.381 3.539-.583 5.389-.583 13.807 0 25 11.193 25 25 0 3.126-.574 6.119-1.622 8.877 6.986 4.434 11.622 12.236 11.622 21.123 0 8.178-3.927 15.439-9.998 20 6.071 4.561 9.998 11.822 9.998 20z" fill="#fcf498"/><path d="m369.62 336.876c22.993 30.218 17.992 73.206-11.324 97.339l-62.742 51.651c-14.604 2.715-29.663 4.134-45.054 4.134s-30.45-1.419-45.054-4.134l-62.743-51.651c-29.316-24.134-34.317-67.121-11.324-97.339 25.919-34.064 75.931-37.445 106.198-7.178l4.908 4.908c4.426 4.426 11.603 4.426 16.03 0l4.908-4.908c30.266-30.267 80.278-26.887 106.197 7.178z" fill="#c92c2c"/><path d="m369.62 336.875c22.993 30.219 17.992 73.206-11.324 97.34l-11.639 9.581c-32.262 26.559-78.813 26.559-111.075 0l-62.101-51.123c-20.883-17.192-31.46-42.374-30.805-67.573 27.355-22.598 68.589-21.716 94.9 4.596l4.909 4.909c4.426 4.426 11.603 4.426 16.029-.001l4.907-4.908c30.268-30.265 80.281-26.885 106.199 7.179z" fill="#f52c2c"/><path d="m333.804 348.952-5.325 9.157c-.691 1.188-2.408 1.188-3.099 0l-5.325-9.157c-.156-.269-.38-.492-.648-.648l-9.157-5.325c-1.188-.691-1.188-2.408 0-3.099l9.157-5.325c.269-.156.492-.38.648-.648l5.325-9.157c.691-1.188 2.408-1.188 3.099 0l5.325 9.157c.156.269.38.492.648.648l9.157 5.325c1.188.691 1.188 2.408 0 3.099l-9.157 5.325c-.269.156-.492.379-.648.648z" fill="#fff5f5"/><path d="m114.806 386c56.234 15.636 75.039 12.122 96.625 32.5 6.218 5.87 23.479 22.166 20.937 41.44-2.918 22.127-30.324 35.971-49.597 39.745-37.042 7.254-68.139-17.97-81.512-28.818-40.759-33.062-66.393-88.712-53.328-101.742 6.606-6.588 17.627 3.182 66.875 16.875z" fill="#c98001"/><path d="m453 369.125c13.065 13.03-12.569 68.68-53.328 101.742-13.374 10.848-44.47 36.072-81.512 28.818-19.273-3.774-46.679-17.618-49.597-39.745-2.542-19.275 14.719-35.57 20.937-41.44 21.586-20.378 40.391-16.864 96.625-32.5 49.248-13.693 60.269-23.463 66.875-16.875zm-220.603 90.606c-4.709 1.802-9.373 3.131-13.639 3.966-37.042 7.254-71.635-10.35-85.008-21.198-19.491-15.81-42.78-38.426-47.196-65.15 6.585 2.138 19.08 4.851 27.946 7.316 56.234 15.636 77.081 13.122 98.667 33.5 6.192 5.848 21.602 22.394 19.23 41.566z" fill="#f19b0b"/><path d="m424.678 445.815c-7.385 9.009-15.81 17.618-25.006 25.077-13.374 10.848-44.47 36.072-81.512 28.818-19.273-3.774-46.679-17.618-49.597-39.745-2.542-19.275 14.719-35.57 20.937-41.44 3.59-3.389 7.103-6.117 10.724-8.382-4.39 6.993-7.612 15.438-6.411 24.548 2.918 22.127 30.324 35.971 49.597 39.745 36.819 7.21 67.763-17.668 81.268-28.621z" fill="#c98001"/></g></svg>